# xmcd
#
# Track frame offsets:
# 150
# 11953
# 30756
# 44340
# 58697
# 77867
# 91780
# 115570
# 132738
# 149422
# 160270
# 174446
# 185164
# 200903
# 212447
#
# Disc length: 2995 seconds
#
#
# Revision: 9
# Processed by: cddbd v1.4PL0 Copyright (c) Steve Scherf et al.
# Submitted via: FreeRIP 2.00 
#
DISCID=d20bb10f
DTITLE=The Cranberries - Wake Up And Smell The Coffee
DYEAR=2001
DGENRE=Other
TTITLE0=Never Grow Old
TTITLE1=Analyse
TTITLE2=Time Is Ticking Out
TTITLE3=Dying Inside
TTITLE4=This Is The Day
TTITLE5=The Concept
TTITLE6=Wake Up And Smell The Coffee
TTITLE7=Pretty Eyes
TTITLE8=I Really Hope
TTITLE9=Every Morning
TTITLE10=Do You Know
TTITLE11=Carry On
TTITLE12=Chocolate Brown
TTITLE13=Salvation
TTITLE14=In The Ghetto
EXTD=Australia Release YEAR: 2001 ID3G: 12
EXTT0=
EXTT1=
EXTT2=
EXTT3=
EXTT4=
EXTT5=
EXTT6=
EXTT7=
EXTT8=
EXTT9=
EXTT10=
EXTT11=
EXTT12=
EXTT13=
EXTT14=
PLAYORDER=
